<svg xmlns="http://www.w3.org/2000/svg" version="1.1" xmlns:xlink="http://www.w3.org/1999/xlink" xmlns:svgjs="http://svgjs.dev/svgjs" width="1000" height="623" viewBox="0 0 1000 623"><g transform="matrix(1,0,0,1,-0.6060606060606233,0.2522267206477409)"><svg viewBox="0 0 396 247" data-background-color="#050816" preserveAspectRatio="xMidYMid meet" height="623" width="1000" xmlns="http://www.w3.org/2000/svg" xmlns:xlink="http://www.w3.org/1999/xlink"><g id="tight-bounds" transform="matrix(1,0,0,1,0.2400000000000091,-0.09999999999999432)"><svg viewBox="0 0 395.52 247.2" height="247.2" width="395.52"><g><svg></svg></g><g><svg viewBox="0 0 395.52 247.2" height="247.2" width="395.52"><g transform="matrix(1,0,0,1,115.95055969289827,47.215199999999996)"><svg viewBox="0 0 163.61888061420345 152.7696" height="152.7696" width="163.61888061420345"><g><svg viewBox="0 0 163.61888061420345 152.7696" height="152.7696" width="163.61888061420345"><g><svg viewBox="0 0 163.61888061420345 152.7696" height="152.7696" width="163.61888061420345"><g><svg viewBox="0 0 163.61888061420345 152.7696" height="152.7696" width="163.61888061420345"><g id="textblocktransform"><svg viewBox="0 0 163.61888061420345 152.7696" height="152.7696" width="163.61888061420345" id="textblock"><g><svg viewBox="0 0 163.61888061420345 152.7696" height="152.7696" width="163.61888061420345"><g transform="matrix(1,0,0,1,0,0)"><svg width="163.61888061420345" viewBox="0.4399999976158142 -38.15999984741211 40.87000274658203 38.15999984741211" height="152.7696" data-palette-color="#ffffff"><path d="M17.11 0L17.11-9.45 0.44-38.16 9.2-38.16 20.95-16.46 32.54-38.16 41.31-38.16 24.85-9.5 24.85 0 17.11 0Z" opacity="1" transform="matrix(1,0,0,1,0,0)" fill="#ffffff" class="undefined-text-0" data-fill-palette-color="primary" id="text-0"></path></svg></g></svg></g></svg></g></svg></g></svg></g></svg></g></svg></g><g><path d="M205.409 0c30.402 0 58.24 10.976 79.769 29.183l-11.147 0c-19.26-14.022-42.974-22.294-68.622-22.295-25.647 0-49.361 8.272-68.621 22.295l-11.147 0c21.528-18.206 49.366-29.183 79.768-29.183zM329.009 123.6c0 21.615-5.548 41.934-15.298 59.611l0-16.026c5.425-13.466 8.41-28.177 8.41-43.585 0-15.408-2.986-30.119-8.41-43.585v-16.026c9.75 17.677 15.299 37.996 15.298 59.611zM205.409 247.2c-30.402 0-58.24-10.976-79.768-29.183l11.147 0c19.26 14.022 42.974 22.294 68.621 22.295 25.647 0 49.361-8.272 68.622-22.295l11.147 0c-21.528 18.206-49.366 29.183-79.769 29.183z" fill="#ffffff" stroke="transparent" data-fill-palette-color="tertiary"></path></g></svg></g><defs></defs></svg><rect width="395.52" height="247.2" fill="none" stroke="none" visibility="hidden"></rect></g></svg></g></svg>